<?xml version="1.0" encoding="utf-8"?>
<!-- Generator: Adobe Illustrator 23.0.5, SVG Export Plug-In . SVG Version: 6.00 Build 0)  -->
<svg version="1.1" id="Layer_2" xmlns="http://www.w3.org/2000/svg" xmlns:xlink="http://www.w3.org/1999/xlink" x="0px" y="0px"
	 viewBox="0 0 2880 1800" style="enable-background:new 0 0 2880 1800;" xml:space="preserve">
<style type="text/css">
	.st0{fill:#D2BAB1;}
	.st1{fill:#D2BAB0;}
	.st2{fill:#D2B9AD;}
	.st3{fill:#CDB9B3;}
</style>
<path class="st0" d="M1309.65,917.3c2.24,8.31,11.22,9.91,16.17,9.65s10.7-1.83,15.39-5.22s6.78-10.17,6.78-10.17h-2.35
	c0,0-0.32,5.62-13.3,7.57c-12.98,1.95-10.7-14.09-8.35-26.87s6.78-19.3,14.09-21.13c7.3-1.83,3.65,9.39,1.57,10.43
	c-2.09,1.04,0,4.17,4.7,3.13c4.7-1.04,4.17-4.17,4.7-7.83s-4.43-12.26-15.65-10.17c0,0-16.17,2.87-22.3,23.22
	C1311.09,889.91,1306.13,904.26,1309.65,917.3z"/>
<path class="st1" d="M1381.13,880.65c0,0-3.39,1.7-0.65,3.39c2.74,1.7,7.96,0.52,9.26-2.74c1.3-3.26,1.43-8.22-2.35-11.09
	c-3.78-2.87-7.96-2.87-11.35-3c-3.39-0.13-15.13-0.52-23.22,12c-8.09,12.52-5.22,27.52-2.35,30.78c2.87,3.26,11.74,10.43,20.61,3.39
	l1.83-1.57c0,0,2.22-2.76,0.52,4.56c-1.7,7.31-2.09,17.1-8.09,20.49s-8.87-4.7-6.91-7.3c1.96-2.61,4.96-5.09,8.74-1.83
	s3.52-9.26-4.04-8.48c-7.57,0.78-12.13,5.35-12.13,11.61s4.7,10.43,12.78,10.43s15.13-5.16,17.35-14.32
	c2.22-9.16,7.7-34.33,7.7-34.33h-9.52c0,0-1.17,14.22-11.48,16.96c-10.3,2.74-10.04-18.65-3.13-29.48
	c6.91-10.83,16.96-11.87,17.61-5.61C1382.96,880.78,1381.13,880.65,1381.13,880.65z"/>
<path class="st2" d="M1397.43,894.74c0,0,2.87,1.3,2.22-1.96c-0.65-3.26-1.7-14.87,7.7-19.04c9.39-4.17,14.61-3.91,19.83,1.7
	c5.22,5.61-1.83,22-10.96,24.57c0,0-1.43,2.4-0.13-3.32c1.3-5.72,4.96-22.29,4.96-22.29l-12.26,1.43l-10.57,49.83h11.61l4.3-22.04
	c0,0,13.83,1.96,20.61-11.22c6.78-13.17,1.3-20.87-5.61-23.48c-6.91-2.61-19.8-3.82-30.65,5.48c-10.85,9.3-7.04,18.52-4.04,19.43
	C1397.43,894.74,1397.43,894.74,1397.43,894.74z"/>
<path class="st3" d="M1493.04,873.22c-0.39,0.05-0.65,3.65-0.65,3.65h7.43l-10.57,48.78h12l12.39-58.47l-1.43-0.15
	C1512.22,867.04,1509.74,871.26,1493.04,873.22z"/>
<path class="st2" d="M1479.22,867.18c-16.3,7.66-22.17,22.47-22.17,22.47c-6.39-0.13-10.17,0.13-14.48,1.96
	c-4.3,1.83-6.78,6-6.39,8.39c0.39,2.39,2.22,4.78,7.3,3.48c5.09-1.3,1.3-5.22,1.3-5.22c3-6.65,8.22-2.87,8.22-2.87
	s-9.78,13.57-10.57,27c-0.78,13.43,6.65,11.61,6.65,11.61h4.04c-4.43-7.17,6.26-39.52,9.13-40.04c2.87-0.52,10.17,2.46,10.17,2.46
	l-5.87,29.24h11.61l11.87-58.47H1479.22z M1473.09,893.3c0,0-7.04-3-9.13-2.74c0,0,6.91-15.26,13.3-18.13L1473.09,893.3z"/>
<path class="st2" d="M1541.17,867.04c-9.52,1.38-12.65,2.14-19.43,11.4c-6.78,9.26-7.3,24.52-7.3,24.52s-1.43,10.7,3.65,17.35
	c5.09,6.65,13.96,7.04,23.61,2.22c9.65-4.83,12.52-19.83,14.35-33.65C1557.87,875.04,1550.7,865.65,1541.17,867.04z M1537.39,915.61
	c-6.52,8.48-11.09,3.39-11.22-8.87c0,0,1.04-20.74,8.09-29.87s10.83-5.35,10.96,4.7C1545.35,891.61,1543.91,907.13,1537.39,915.61z"
	/>
<path class="st2" d="M1561.39,873.09c0,0-0.39,2.74-1.04,3.13c-0.65,0.39,0.26,1.04,7.57,0.65l-10.3,48.78h12l12.13-58.75
	C1581.74,866.9,1571.43,873.61,1561.39,873.09z"/>
</svg>
