<svg id="Layer_1" data-name="Layer 1" xmlns="http://www.w3.org/2000/svg" viewBox="0 0 1491.61 408.82"><defs><style>.cls-1{fill:#3d2929;}</style></defs><title>cgpa101w</title><path class="cls-1" d="M613.49,939.87c12.22,45.35,61.22,54.08,88.23,52.66s58.39-10,84-28.48,37-55.5,37-55.5H809.87s-1.74,30.67-72.57,41.31S678.92,873,691.74,803.24s37-105.31,76.88-115.29,19.92,51.23,8.57,56.91,0,22.75,25.64,17.08,22.76-22.76,25.65-42.73-24.17-66.9-85.4-55.49c0,0-88.23,15.66-121.68,126.7C621.35,790.42,594.29,868.72,613.49,939.87Z" transform="translate(-606.61 -661.96)"/><path class="cls-1" d="M1003.53,739.89s-18.5,9.28-3.55,18.5,43.43,2.84,50.53-14.95,7.8-44.85-12.83-60.51-43.43-15.66-61.93-16.37S893.2,663.72,849.05,732,820.57,882.2,836.23,900s64.06,56.91,112.46,18.5l10-8.57s12.12-15.06,2.84,24.88-11.4,93.31-44.14,111.8S869,1021,879.66,1006.77s27.07-27.77,47.69-10,19.21-50.53-22-46.27-66.19,29.19-66.19,63.35,25.65,56.91,69.74,56.91,82.55-28.16,94.67-78.14,42-187.32,42-187.32H993.59s-6.38,77.59-62.64,92.54S876.17,796.09,913.87,737s92.55-64.77,96.09-30.61S1003.53,739.89,1003.53,739.89Z" transform="translate(-606.61 -661.96)"/><path class="cls-1" d="M1092.47,816.77s15.66,7.1,12.11-10.69-9.27-81.14,42-103.89,79.72-21.34,108.2,9.27-10,120-59.8,134.07c0,0-7.81,13.1-.71-18.11s27.06-121.63,27.06-121.63l-66.9,7.8-57.67,271.9h63.35l23.46-120.26s75.47,10.69,112.46-61.22,7.1-113.88-30.61-128.12-108-20.85-167.24,29.9-38.42,101.05-22,106Z" transform="translate(-606.61 -661.96)"/><path class="cls-1" d="M1614.17,699.35c-2.13.27-3.55,19.92-3.55,19.92h40.54l-57.67,266.17H1659l67.6-319.05-7.8-.82C1718.82,665.63,1705.29,688.66,1614.17,699.35Z" transform="translate(-606.61 -661.96)"/><path class="cls-1" d="M1538.76,666.39c-88.94,41.8-121,122.61-121,122.61-34.87-.71-55.5.71-79,10.7s-37,32.73-34.87,45.78,12.11,26.08,39.83,19,7.1-28.48,7.1-28.48c16.37-36.28,44.85-15.66,44.85-15.66s-53.37,74-57.68,147.33S1374.3,1031,1374.3,1031h22c-24.17-39.12,34.16-215.64,49.82-218.48s55.5,13.42,55.5,13.42l-32,159.55H1533l64.77-319h-59Zm-33.45,142.53s-38.41-16.37-49.82-14.95c0,0,37.71-83.27,72.57-98.93Z" transform="translate(-606.61 -661.96)"/><path class="cls-1" d="M1876.79,665.63c-51.94,7.53-69,11.68-106,62.2s-39.83,133.8-39.83,133.8-7.8,58.38,19.91,94.67,76.18,38.41,128.83,12.11S1948,860.21,1958,784.8,1928.79,658,1876.79,665.63Zm-20.62,265c-35.58,46.27-60.52,18.5-61.23-48.4,0,0,5.68-113.17,44.15-163s59.09-29.2,59.8,25.64S1891.74,884.38,1856.17,930.65Z" transform="translate(-606.61 -661.96)"/><path class="cls-1" d="M1987.12,698.64s-2.12,15-5.67,17.08,1.42,5.67,41.3,3.55l-56.2,266.17H2032l66.19-320.58C2098.16,664.86,2041.91,701.48,1987.12,698.64Z" transform="translate(-606.61 -661.96)"/></svg>