<svg width="118" height="712" viewBox="0 0 118 712" fill="none" xmlns="http://www.w3.org/2000/svg">
<path d="M59 117.5C91.3087 117.5 117.5 91.3087 117.5 59C117.5 26.6913 91.3087 0.5 59 0.5C26.6913 0.5 0.5 26.6913 0.5 59C0.5 91.3087 26.6913 117.5 59 117.5Z" fill="#474747" fill-opacity="0.73"/>
<path d="M59 1C90.98 1 117 27.02 117 59C117 90.98 90.98 117 59 117C27.02 117 1 90.98 1 59C1 27.02 27.02 1 59 1ZM59 0C26.42 0 0 26.42 0 59C0 91.58 26.42 118 59 118C91.58 118 118 91.58 118 59C118 26.42 91.58 0 59 0Z" fill="#474747" fill-opacity="0.73"/>
<path d="M59 414.5C91.3087 414.5 117.5 388.309 117.5 356C117.5 323.691 91.3087 297.5 59 297.5C26.6913 297.5 0.5 323.691 0.5 356C0.5 388.309 26.6913 414.5 59 414.5Z" fill="#474747" fill-opacity="0.73"/>
<path d="M59 298C90.98 298 117 324.02 117 356C117 387.98 90.98 414 59 414C27.02 414 1 387.98 1 356C1 324.02 27.02 298 59 298ZM59 297C26.42 297 0 323.42 0 356C0 388.58 26.42 415 59 415C91.58 415 118 388.58 118 356C118 323.42 91.58 297 59 297Z" fill="#474747" fill-opacity="0.73"/>
<path d="M59 711.5C91.3087 711.5 117.5 685.309 117.5 653C117.5 620.691 91.3087 594.5 59 594.5C26.6913 594.5 0.5 620.691 0.5 653C0.5 685.309 26.6913 711.5 59 711.5Z" fill="#474747" fill-opacity="0.73"/>
<path d="M59 595C90.98 595 117 621.02 117 653C117 684.98 90.98 711 59 711C27.02 711 1 684.98 1 653C1 621.02 27.02 595 59 595ZM59 594C26.42 594 0 620.42 0 653C0 685.58 26.42 712 59 712C91.58 712 118 685.58 118 653C118 620.42 91.58 594 59 594Z" fill="#474747" fill-opacity="0.73"/>
</svg>
